<svg data-name="Layer 1" xmlns="http://www.w3.org/2000/svg" viewBox="0 0 20.02 20.01"><defs><style>.cls-1{fill:#fff;}</style></defs><path class="cls-1" d="M18.35 18.43A6 6 0 0 1 14.12 20H5.9a5.9 5.9 0 0 1-4.19-1.58A5.79 5.79 0 0 1 0 14.12V5.85A5.52 5.52 0 0 1 5.19 0h9A5.59 5.59 0 0 1 20 5.32a4.68 4.68 0 0 1 0 .53v8.3a5.77 5.77 0 0 1-1.65 4.28zm-.12-12.58A4.14 4.14 0 0 0 17.15 3a4.07 4.07 0 0 0-2.95-1.13H5.9A4.07 4.07 0 0 0 3 2.91a4 4 0 0 0-1.09 3v8.26A4 4 0 0 0 3 17.1a4.13 4.13 0 0 0 2.94 1h8.23a4.15 4.15 0 0 0 2.94-1 3.9 3.9 0 0 0 1.09-2.94h.08v-8.3zm-2.86 0a1.17 1.17 0 1 1 1.17-1.17 1.16 1.16 0 0 1-1.17 1.17zM10 15.13a5.16 5.16 0 0 1-.13-10.32H10a5.16 5.16 0 1 1 .14 10.32zm0-8.47A3.31 3.31 0 1 0 13.32 10 3.32 3.32 0 0 0 10 6.66z" /></svg>
