<svg data-name="Layer 1" xmlns="http://www.w3.org/2000/svg" viewBox="0 0 21 11.88"><defs><style>.cls-1{fill:#fff;}</style></defs><path class="cls-1" d="M10.27 11.87h1.25a1.08 1.08 0 0 0 .58-.24 1 1 0 0 0 .17-.55s0-1.69.76-1.93 1.76 1.61 2.81 2.32a1.85 1.85 0 0 0 1.4.4H20s1.46-.11.77-1.25a9.37 9.37 0 0 0-2.09-2.39c-1.76-1.62-1.52-1.36.6-4.16 1.33-1.7 1.85-2.74 1.72-3.19a1.28 1.28 0 0 0-1.1-.35h-3.2a.84.84 0 0 0-.41.08A1 1 0 0 0 16 1a18.59 18.59 0 0 1-1.17 2.47c-1.41 2.37-2 2.49-2.2 2.34-.54-.34-.4-1.37-.4-2.11 0-2.29.35-3.25-.68-3.5a5.68 5.68 0 0 0-1.46-.2 7 7 0 0 0-2.62.29c-.36.18-.63.57-.47.59a1.46 1.46 0 0 1 .93.46 3 3 0 0 1 .31 1.42s.19 2.7-.43 3c-.43.23-1-.24-2.27-2.39a18.59 18.59 0 0 1-1.11-2.3 1 1 0 0 0-.27-.35 1.36 1.36 0 0 0-.48-.2h-3a1.08 1.08 0 0 0-.62.21.65.65 0 0 0 0 .53s2.35 5.49 5 8.23a7.3 7.3 0 0 0 5.21 2.38z" /></svg>
