<svg data-name="Layer 1" xmlns="http://www.w3.org/2000/svg" viewBox="0 0 19 20"><defs><style>.cls-1{fill:#fff;}</style></defs><path class="cls-1" d="M15.52 19.5A34.39 34.39 0 0 1 10 20a50.66 50.66 0 0 1-6.5-.5A3.47 3.47 0 0 1 0 16v-3.33a3.35 3.35 0 0 1 3.38-3.35h.09a40.94 40.94 0 0 1 5.95-.5 43 43 0 0 1 6.1.5 3.39 3.39 0 0 1 3.48 3.3V16a3.48 3.48 0 0 1-3.48 3.5zM6 11H2.68v.95H3.8v5.55h1.09v-5.58H6V11zm2.87 1.95h-1v3.66a.94.94 0 0 1-.3.26.49.49 0 0 1-.26.1.24.24 0 0 1-.2-.07.37.37 0 0 1-.06-.25v-3.7h-1v4a1 1 0 0 0 .17.65.61.61 0 0 0 .5.21 1.19 1.19 0 0 0 .55-.15 2.22 2.22 0 0 0 .56-.45v.53h1v-4.82zm4 1a1.44 1.44 0 0 0-.24-.9.77.77 0 0 0-.7-.17 2.45 2.45 0 0 0-.71.11 1.36 1.36 0 0 0-.41.34v-2.25h-1v6.66h1v-.36a1.38 1.38 0 0 0 .4.32 3 3 0 0 0 .78.11.93.93 0 0 0 .65-.4 1.31 1.31 0 0 0 .23-.79v-2.68zm3.49 2.12h-1v.22a1 1 0 0 1-.1.55.38.38 0 0 1-.26.16.37.37 0 0 1-.33-.14 1 1 0 0 1-.09-.53v-.91h1.83v-1.28a1.44 1.44 0 0 0-.41-1.05 1.35 1.35 0 0 0-1-.37 1.5 1.5 0 0 0-1.06.4 1.35 1.35 0 0 0-.4 1v2.18a1.5 1.5 0 0 0 .37 1.09 1.28 1.28 0 0 0 1 .4 1.42 1.42 0 0 0 1.09-.37 1.56 1.56 0 0 0 .36-1.12v-.25zm-1.83-1.93a.66.66 0 0 1 .1-.43.34.34 0 0 1 .32-.13.37.37 0 0 1 .32.13.66.66 0 0 1 .1.43v.49h-.85v-.49zm-3.23 2.91a.59.59 0 0 1-.23-.05.81.81 0 0 1-.23-.17v-3a.75.75 0 0 1 .2-.15.46.46 0 0 1 .2 0 1.28 1.28 0 0 1 .57.13.61.61 0 0 1 .1.37v2.49a.5.5 0 0 1-.09.33 1.3 1.3 0 0 1-.52.1zM13.77 7a2.44 2.44 0 0 1-.62.49 1.29 1.29 0 0 1-.63.17.66.66 0 0 1-.52-.21 1.19 1.19 0 0 1-.19-.71V2.3h1.08v4.07a.5.5 0 0 0 .07.27.31.31 0 0 0 .22.09.56.56 0 0 0 .3-.12 1.3 1.3 0 0 0 .34-.28v-4h1.08v5.28h-1.13V7zm-4.43.72a1.63 1.63 0 0 1-1.14-.4 1.41 1.41 0 0 1-.42-1.08V3.52a1.19 1.19 0 0 1 .43-1 1.79 1.79 0 0 1 1.18-.37 1.6 1.6 0 0 1 1.1.39 1.27 1.27 0 0 1 .42 1v2.75a1.39 1.39 0 0 1-.42 1.07 1.66 1.66 0 0 1-1.15.39zm.47-4.27a.32.32 0 0 0-.13-.28.49.49 0 0 0-.35-.11.48.48 0 0 0-.33.14.33.33 0 0 0-.12.28v2.89a.47.47 0 0 0 .12.34.45.45 0 0 0 .33.12.48.48 0 0 0 .35-.12.43.43 0 0 0 .13-.34zM6.27 7.61H5.05V4.34L3.6 0h1.23l.79 2.88h.08L6.45 0h1.24L6.27 4.2v3.41z" /></svg>
